<?xml version="1.0" encoding="UTF-8"?>
<svg id="Layer_2" data-name="Layer 2" xmlns="http://www.w3.org/2000/svg" xmlns:xlink="http://www.w3.org/1999/xlink" viewBox="0 0 30.24 22.82">
  <defs>
    <style>
      .cls-1 {
        fill: url(#linear-gradient);
        stroke-width: 0px;
      }
    </style>
    <linearGradient id="linear-gradient" x1="4.47" y1="2.05" x2="25.77" y2="23.35" gradientUnits="userSpaceOnUse">
      <stop offset="0" stop-color="#00d9ff"/>
      <stop offset=".5" stop-color="#9020ff"/>
      <stop offset="1" stop-color="#ff36dd"/>
    </linearGradient>
  </defs>
  <g id="Layer_1-2" data-name="Layer 1">
    <path class="cls-1" d="M25.62,1.91c-1.99-.91-4.08-1.55-6.24-1.91-.29.52-.56,1.06-.8,1.62-2.3-.34-4.63-.34-6.92,0-.24-.55-.5-1.09-.8-1.62-2.16.37-4.26,1.01-6.24,1.92C.66,7.73-.41,13.41.13,19H.13c2.31,1.7,4.9,3,7.65,3.83.62-.83,1.17-1.71,1.64-2.63-.89-.33-1.76-.74-2.58-1.23.22-.16.43-.32.63-.47,4.85,2.27,10.46,2.27,15.3,0,.21.17.42.33.63.47-.82.48-1.69.9-2.59,1.23.47.92,1.02,1.8,1.64,2.63,2.75-.83,5.34-2.12,7.66-3.82h0c.63-6.49-1.07-12.11-4.5-17.09ZM10.1,15.56c-1.49,0-2.72-1.35-2.72-3.01s1.19-3.02,2.72-3.02,2.75,1.36,2.73,3.02-1.2,3.01-2.72,3.01ZM20.15,15.56c-1.49,0-2.72-1.35-2.72-3.01s1.19-3.02,2.72-3.02,2.75,1.36,2.72,3.02-1.2,3.01-2.72,3.01Z"/>
  </g>
</svg>