<?xml version="1.0" encoding="UTF-8"?>
<svg id="Layer_2" data-name="Layer 2" xmlns="http://www.w3.org/2000/svg" xmlns:xlink="http://www.w3.org/1999/xlink" viewBox="0 0 23.07 22.69">
  <defs>
    <style>
      .cls-1 {
        fill: url(#linear-gradient);
        fill-rule: evenodd;
        stroke-width: 0px;
      }
    </style>
    <linearGradient id="linear-gradient" x1="3.35" y1="3.43" x2="19.73" y2="19.81" gradientUnits="userSpaceOnUse">
      <stop offset="0" stop-color="#00d9ff"/>
      <stop offset=".5" stop-color="#9020ff"/>
      <stop offset="1" stop-color="#ff36dd"/>
    </linearGradient>
  </defs>
  <g id="Layer_2-2" data-name="Layer 2">
    <path class="cls-1" d="M11.55,0C5.16,0,0,5.2,0,11.63c0,5.14,3.31,9.49,7.89,11.03.57.12.78-.25.78-.56,0-.27-.02-1.19-.02-2.16-3.21.69-3.88-1.39-3.88-1.39-.52-1.35-1.28-1.69-1.28-1.69-1.05-.71.08-.71.08-.71,1.17.08,1.78,1.19,1.78,1.19,1.03,1.77,2.69,1.27,3.36.96.1-.75.4-1.27.73-1.56-2.56-.27-5.26-1.27-5.26-5.74,0-1.27.46-2.31,1.18-3.12-.11-.29-.52-1.48.11-3.08,0,0,.97-.31,3.17,1.19.94-.25,1.91-.38,2.89-.39.97,0,1.97.13,2.89.39,2.2-1.5,3.17-1.19,3.17-1.19.63,1.6.23,2.79.11,3.08.75.81,1.19,1.85,1.19,3.12,0,4.47-2.69,5.45-5.28,5.74.42.37.78,1.06.78,2.16,0,1.56-.02,2.81-.02,3.2,0,.31.21.67.78.56,4.59-1.54,7.89-5.89,7.89-11.03.02-6.43-5.16-11.63-11.53-11.63Z"/>
  </g>
</svg>