<?xml version="1.0" encoding="UTF-8"?>
<svg id="Layer_2" data-name="Layer 2" xmlns="http://www.w3.org/2000/svg" xmlns:xlink="http://www.w3.org/1999/xlink" viewBox="0 0 23 23">
  <defs>
    <style>
      .cls-1 {
        fill: url(#linear-gradient);
        stroke-width: 0px;
      }
    </style>
    <linearGradient id="linear-gradient" x1="3.37" y1="3.37" x2="19.63" y2="19.63" gradientUnits="userSpaceOnUse">
      <stop offset="0" stop-color="#00d9ff"/>
      <stop offset=".5" stop-color="#9020ff"/>
      <stop offset="1" stop-color="#ff36dd"/>
    </linearGradient>
  </defs>
  <g id="Layer_2-2" data-name="Layer 2">
    <path class="cls-1" d="M11.5,0C5.15,0,0,5.15,0,11.5s5.15,11.5,11.5,11.5,11.5-5.15,11.5-11.5S17.85,0,11.5,0ZM17.52,11.27l-2.87,2.08,1.1,3.37c.26.83-.68,1.51-1.38,1l-2.87-2.08-2.87,2.08c-.7.51-1.64-.17-1.38-1l1.1-3.37-2.87-2.08c-.7-.51-.34-1.62.53-1.62h3.54l1.1-3.37c.27-.83,1.43-.83,1.7,0l1.1,3.37h3.54c.87,0,1.23,1.11.53,1.62Z"/>
  </g>
</svg>